<?xml version="1.0" encoding="UTF-8"?>
<svg width="200px" height="200px" viewBox="0 0 200 200" version="1.1" xmlns="http://www.w3.org/2000/svg" xmlns:xlink="http://www.w3.org/1999/xlink">
    <!-- Generator: Sketch 54.1 (76490) - https://sketchapp.com -->
    <title>babson</title>
    <desc>Created with Sketch.</desc>
    <g id="babson" stroke="none" stroke-width="1" fill="none" fill-rule="evenodd">
        <g id="babson_BGL">
            <g id="babson" transform="translate(0.000000, 32.000000)">
                <g fill-rule="nonzero" id="g10">
                    <g transform="translate(100.225225, 68.652218) scale(-1, 1) rotate(-180.000000) translate(-100.225225, -68.652218) translate(0.900901, 0.823786)">
                        <g id="g12" transform="translate(0.270270, 0.000000)">
                            <path d="M97.2540478,135.130348 C129.192786,135.130348 159.463055,125.153525 183.735127,110.480735 C197.407198,103.7826 200.783775,93.1066286 193.136928,82.7610694 C191.636027,76.0201323 186.717109,65.2610659 177.789181,59.2008308 L175.109902,59.7072831 C166.891884,47.8821239 161.482875,43.7470521 161.482875,43.7470521 L163.362154,42.7006587 C163.362154,42.7006587 151.108101,22.1519128 125.996389,27.1265349 C125.996389,27.1265349 108.219813,23.9511794 88.0666607,0.961863623 C77.6270213,27.552578 40.0900853,44.756554 35.0612566,48.9258311 L40.2558511,49.4582506 C16.40414,65.1323038 6.23459065,84.1735125 6.23459065,84.1735125 L9.4362122,84.2951112 C4.67477087,90.2937411 0.952969165,98.6960494 0.952969165,98.6960494 C0.952969165,98.6960494 18.2066624,111.213551 38.6792745,118.667067 L35.3639593,120.081838 C35.3639593,120.081838 69.8792737,135.130348 97.2540478,135.130348" id="path14" fill="#9FA7AA"></path>
                            <path d="M182.412604,107.871467 C132.308101,136.747485 89.9531471,131.883537 86.4630571,131.410753 C66.5099045,128.701198 43.2486438,119.970806 43.2486438,119.970806 C43.2486438,119.970806 45.3693645,119.064636 47.4288239,118.371577 C25.6257613,112.241499 4.73260871,97.6643409 4.73260871,97.6643409 C4.73260871,97.6643409 8.72323924,88.579898 15.8284643,81.7159296 C15.8284643,81.7159296 13.6965725,81.4942224 11.6758518,81.4172159 C25.7672028,59.9556739 49.0972923,47.5742768 49.0972923,47.5742768 C49.0972923,47.5742768 46.2954906,47.0952246 43.9657609,46.8572206 C54.1243192,40.4445463 79.201796,26.6417519 88.9333273,6.21836545 C92.7675615,10.4107444 106.801795,24.0589885 120.300894,28.3835322 C117.708101,30.0561858 116.13693,31.8540197 116.13693,31.8540197 C119.915309,30.7641086 129.57657,29.6763466 129.57657,29.6763466 L129.581975,29.664527 C138.969362,29.2160982 148.225218,29.1747296 158.863055,41.8596757 C158.863055,41.8596757 157.931524,42.3800966 156.650443,43.3650639 L162.050443,48.1389317 C162.050443,48.1389317 161.297289,48.5712428 159.12792,49.7807827 C157.176569,50.8692611 154.041434,50.264133 151.248641,49.3056703 C149.891884,51.6029722 148.98738,54.3879224 149.288281,57.6059001 C153.940533,60.3922831 158.742335,61.8102778 163.027019,62.4796974 C162.866659,61.8521837 162.697289,61.1820477 162.515307,60.4628425 C161.403596,56.1108988 160.174767,52.1914453 164.464857,50.6237356 L173.832424,62.8364346 C175.911704,62.6482163 177.153145,62.3788725 177.153145,62.3788725 C184.245037,67.7899247 189.025217,76.8700696 190.439631,84.0132315 C196.304496,91.5340836 196.57837,100.970966 182.412604,107.871467" id="path16" fill="#125E40"></path>
                            <path d="M167.039632,62.1473157 C165.942334,59.430955 164.396389,55.3093146 164.940533,54.9232074 L169.944136,62.1131105 C168.83783,62.2279039 167.850442,62.2137562 167.039632,62.1473157" id="path18" fill="#FFFFFF"></path>
                            <path d="M144.356749,56.9155276 C140.488281,53.1427447 138.472065,46.3865854 138.472065,46.3865854 C138.472065,46.3865854 140.726119,46.2409893 142.38738,46.8034952 C139.237831,40.738962 135.909903,38.2702758 122.958552,36.0800667 C143.452245,31.9240419 151.189182,41.1657214 151.189182,41.1657214 C151.189182,41.1657214 142.85765,48.3738912 144.356749,56.9155276" id="path20" fill="#FFFFFF"></path>
                            <path d="M155.641434,47.5148206 L153.313506,46.4739788 C153.763956,45.9612586 154.221614,45.4875788 154.673866,45.0574168 L158.282875,47.650567 C156.870263,48.2417265 155.641434,47.5148206 155.641434,47.5148206" id="path22" fill="#FFFFFF"></path>
                            <path d="M176.102695,88.6155359 C177.75855,89.0738144 179.37837,89.8005411 180.243235,90.6008718 C182.960352,93.1220299 178.252244,96.3638259 171.212605,92.5743881 C171.216208,92.5854914 171.223415,92.5939084 171.227019,92.605728 C171.203596,92.5847751 171.180172,92.5674038 171.156749,92.5462718 C170.65765,93.6383319 170.380172,95.2683632 171.363956,97.3529122 C171.363956,97.3529122 162.834226,93.3242169 160.225217,85.7922615 C164.214407,85.9985674 169.37837,85.8621046 174.187379,84.4917465 C168.738731,83.782391 164.050443,82.3909008 160.794587,81.2135963 C164.241434,81.0638812 168.086479,80.5756956 171.551343,79.4032264 C167.718911,78.9316957 163.780172,77.8369493 160.372965,76.4952447 C163.535127,76.1594604 166.879271,75.5158291 169.776569,74.3566121 C164.295488,73.7389481 156.664857,70.7980148 151.515308,66.827343 C148.545938,64.259981 147.070263,62.0851732 147.059452,62.0704882 L147.059452,62.0690556 C159.704497,69.3723194 176.990983,67.9836946 176.990983,67.9836946 C179.517109,70.7106214 181.091884,73.5136592 181.924316,76.2545546 C181.929721,76.2803428 181.940532,76.3140108 181.949541,76.3462461 C182.369361,77.7543911 182.592784,79.1449859 182.645037,80.4979727 C182.457649,84.6575792 179.311703,87.2423124 176.102695,88.6155359" id="path24" fill="#FFFFFF"></path>
                            <path d="M141.084677,106.719951 C142.500894,106.261673 143.774767,107.020098 143.774767,107.020098 C143.774767,107.020098 143.329722,108.449196 141.816209,108.987167 C141.066659,109.253108 140.281074,108.924308 140.079272,108.297511 C139.87747,107.67125 140.326119,106.96476 141.084677,106.719951" id="path26" fill="#FFFFFF"></path>
                            <path d="M76.0252195,116.070335 C81.1423365,113.498675 82.3819761,112.261198 88.2612553,110.298785 C72.0828773,111.174152 69.5909855,103.99589 69.5909855,103.99589 C69.5909855,103.99589 75.8450394,107.909254 82.5081023,105.366248 C77.3081024,100.284712 71.9026971,96.7282638 66.6558504,98.3176429 C63.4108054,99.3011775 62.4864811,101.946979 62.5495442,103.715443 C62.7747694,110.063826 69.4108053,113.351826 75.9243186,111.922728 C70.513508,115.839316 65.2774721,113.735067 62.2017965,110.653015 C63.3639586,116.335381 71.3063007,118.443211 76.0252195,116.070335 Z M121.190984,115.087159 C139.349542,119.449669 149.789182,114.173825 152.854046,110.393342 C155.920713,106.615007 160.463055,105.832943 160.463055,105.832943 C161.264857,107.441843 160.785578,108.768862 160.785578,108.768862 C169.625217,106.505945 174.861253,102.047624 174.861253,102.047624 C174.861253,102.047624 160.94774,105.663708 150.282875,98.8751344 C150.282875,98.8751344 150.996389,100.973115 149.068461,103.967953 C147.918911,102.28133 145.209002,101.420827 142.335128,101.999451 C138.850443,102.698957 136.44684,105.239635 136.963957,107.671967 C137.082876,108.223907 137.344137,108.717107 137.711704,109.15085 C132.533326,109.794482 125.236029,105.832227 125.236029,105.832227 C120.300894,107.245386 105.12612,109.481083 105.12612,109.481083 C114.477471,112.354322 133.428822,113.059917 133.428822,113.059917 C129.592786,114.723616 121.190984,115.087159 121.190984,115.087159 Z M179.816208,102.898278 C174.021613,107.160679 167.209001,110.564726 160.016208,113.260492 C160.254046,112.250453 160.459452,110.610035 160.459452,110.610035 L160.446839,110.617198 C148.812605,123.249851 108.250444,126.656047 96.1765704,125.688989 C94.0558497,125.52244 87.4774715,125.391708 80.646841,123.033159 C80.646841,123.033159 85.2900842,121.756283 86.5765706,115.916322 C80.6972915,120.604767 70.1171116,124.46942 60.533328,119.951106 C60.533328,119.951106 61.688283,119.720087 62.7855802,118.998374 C57.2054002,116.392688 53.6864814,108.660516 55.5459408,100.489764 C50.1459409,104.691277 50.6972922,111.389054 50.6972922,111.389054 C41.9711663,109.396376 31.8972927,104.523295 31.8972927,104.523295 C31.8972927,104.523295 38.6288241,99.1962337 50.8576526,98.2617684 C39.5693646,93.9873685 23.0216173,98.0531344 23.0216173,98.0531344 C23.0216173,98.0531344 41.1819772,75.0204801 84.8576518,75.4212722 C84.8576518,75.4212722 68.8648594,69.4101064 51.6017967,72.4112122 C62.8738685,65.0280764 94.0180119,66.0236097 104.243237,71.5430083 C104.243237,71.5430083 93.8792731,58.81544 74.4648592,59.4085694 C93.8234173,52.1661944 122.799993,54.7992806 136.470263,73.9103324 C125.75675,71.0750593 118.697291,67.1616946 118.697291,67.1616946 C132.209002,83.249255 155.190983,85.4319426 160.225217,85.7929778 C162.834226,93.3242169 171.363956,97.3536285 171.363956,97.3536285 C170.380172,95.2676469 170.65765,93.6376156 171.154947,92.5450182 C171.180172,92.5659711 171.203596,92.5847751 171.227019,92.605728 C173.825217,98.8129919 180.866658,100.571606 184.275667,99.9770442 C185.542334,99.7558742 186.592784,99.3810494 187.461253,98.903788 C185.677469,101.035436 182.953145,102.513604 179.816208,102.898278 L179.816208,102.898278 Z" id="path28" fill="#9FA7AA"></path>
                        </g>
                    </g>
                </g>
            </g>
        </g>
    </g>
</svg>